<svg width="290" height="192" viewBox="0 0 290 192" fill="none" xmlns="http://www.w3.org/2000/svg"><path d="M290 186.898c0 2.821-2.276 5.102-5.081 5.102H5.081C2.275 192 0 189.719 0 186.898v-.351c0-2.817 2.275-5.103 5.081-5.103H284.92c2.805 0 5.081 2.286 5.081 5.103v.351z" fill="#F1ECE2"/><path d="M129.473 50.027V22.88c0-11.53 9.308-20.88 20.789-20.88 11.483 0 20.79 9.35 20.79 20.88v27.147" stroke="#B31D2D" stroke-width="4" stroke-miterlimit="10" stroke-linecap="round" stroke-linejoin="round"/><path d="M102.633 46.332v116.111h95.263V46.333h-95.263z" fill="#EF4742"/><path d="M150 46.332v116.111h47.895V46.333H150z" fill="#EF4742"/><path d="M99.473 57.417v124.028h101.579V57.417H99.472z" fill="#F4695B"/><path d="M150 57.417v124.028h51.053V57.417H150z" fill="#F2574F"/><path d="M201.053 57.416l-18.948-6.333v6.333h18.948z" fill="#F4695B"/><path d="M182.105 51.21l15.79-4.877v10.028l-15.79-5.15zm-82.632 6.206l18.947-6.333v6.333H99.473z" fill="#F2574F"/><path d="M118.422 51.21l-15.789-4.877v10.028l15.789-5.15z" fill="#F4695B"/><path d="M171.052 67.445V94.59c0 11.529-9.307 20.883-20.79 20.883-11.484 0-20.789-9.354-20.789-20.883V67.445" stroke="#B31D2D" stroke-width="4" stroke-miterlimit="10" stroke-linecap="round" stroke-linejoin="round"/><path d="M182.633 86.445v86.028h70V86.445h-70z" fill="#E69123"/><path d="M217.367 86.445v86.028h35.263V86.445h-35.263z" fill="#E69123"/><path d="M180 94.362v92.361h75.263V94.361H180z" fill="#EAB957"/><path d="M217.367 94.362v92.361h37.895V94.361h-37.895z" fill="#EDA738"/><path d="M255.261 94.361l-14.21-4.222v4.222h14.21z" fill="#EAB957"/><path d="M241.051 90.04l11.579-3.595v7.389l-11.579-3.794zM180 94.361l14.211-4.222v4.222H180z" fill="#EDA738"/><path d="M194.212 90.04l-11.579-3.595v7.389l11.579-3.794z" fill="#EAB957"/><path d="M232.632 102.278v19.985c0 8.491-6.834 15.376-15.264 15.376-8.431 0-15.263-6.885-15.263-15.376v-19.985" stroke="#B6471F" stroke-width="4" stroke-miterlimit="10" stroke-linecap="round" stroke-linejoin="round"/><path d="M31.578 109.139v71.25h96.842v-71.25H31.578z" fill="#299FC8"/><path d="M60.527 109.139v71.25h67.895v-71.25H60.527z" fill="#299FC8"/><path d="M29.473 116v76h101.052v-76H29.473z" fill="#C9E4F7"/><path d="M80 116v76h50.526v-76H80z" fill="#8FD8F3"/><path d="M130.524 116l-11.579-3.694V116h11.579z" fill="#C9E4F7"/><path d="M118.945 112.223l9.474-3.084v6.334l-9.474-3.25zM29.473 116l11.579-3.694V116h-11.58z" fill="#8FD8F3"/><path d="M41.052 112.223l-9.474-3.084v6.334l9.474-3.25z" fill="#C9E4F7"/><path d="M98.42 122.861v24.165c0 10.264-8.247 18.585-18.421 18.585-10.175 0-18.42-8.321-18.42-18.585v-24.165" stroke="#2890B7" stroke-width="4" stroke-miterlimit="10" stroke-linecap="round" stroke-linejoin="round"/></svg>